# Blender 5.0.1
# www.blender.org
mtllib simpleSpaceShip.mtl
o Plane
v 0.000000 0.000000 1.294120
v 0.469702 0.000000 1.278222
v 0.000000 0.000000 -0.885137
v 0.469702 0.000000 -0.022249
v 0.469702 0.000000 0.949090
v 0.685724 0.000000 1.278222
v 0.685724 0.000000 0.949090
v 1.072139 0.000000 1.278222
v 1.072139 0.000000 0.949090
v 0.685724 0.000000 1.389511
v 1.072139 0.000000 1.389511
v 0.685724 0.000000 0.511885
v 1.072139 0.000000 0.511885
v 0.000000 0.392580 0.949721
v 0.000000 0.392580 1.294120
v 0.469702 0.392580 1.278222
v 0.469702 0.392580 0.949090
v 0.469702 0.392580 -0.022249
v 0.000000 0.392580 -0.420465
v 0.469702 0.085058 1.278222
v 0.469702 0.085171 0.949090
v 0.685724 0.085171 1.278222
v 0.685724 0.085171 0.949090
v 0.000000 0.084945 1.294120
v 0.469702 0.085245 -0.022249
v 0.000000 0.085245 -0.885137
v 0.685724 0.101392 1.278222
v 0.825214 0.240882 1.278222
v 0.704412 0.171137 1.278222
v 0.755469 0.222194 1.278222
v 0.825214 0.240882 0.949090
v 0.685724 0.101392 0.949090
v 0.755469 0.222194 0.949090
v 0.704412 0.171137 0.949090
v 0.932649 0.240882 1.278222
v 1.072139 0.101392 1.278222
v 1.002394 0.222194 1.278222
v 1.053451 0.171137 1.278222
v 1.072139 0.101392 0.949090
v 0.932649 0.240882 0.949090
v 1.053451 0.171137 0.949090
v 1.002394 0.222194 0.949090
v 0.828548 0.215552 1.389511
v 0.711054 0.098057 1.389511
v 0.768580 0.199484 1.389511
v 0.727122 0.158025 1.389511
v 1.046809 0.098057 1.389511
v 0.929314 0.215552 1.389511
v 1.030740 0.158025 1.389511
v 0.989282 0.199484 1.389511
v 0.928174 0.206895 0.511885
v 1.038151 0.096917 0.511885
v 0.984800 0.191722 0.511885
v 1.022978 0.153544 0.511885
v 0.719711 0.096917 0.511885
v 0.829688 0.206895 0.511885
v 0.734884 0.153544 0.511885
v 0.773062 0.191722 0.511885
v 1.038151 0.033988 0.511885
v 0.719711 0.033988 0.511885
v 1.072139 0.101392 0.511885
v 1.053451 0.171137 0.511885
v 1.002394 0.222194 0.511885
v 0.932649 0.240882 0.511885
v 0.704412 0.171137 0.511885
v 0.685724 0.101392 0.511885
v 0.755469 0.222194 0.511885
v 0.825214 0.240882 0.511885
v 1.038151 0.033988 0.547586
v 0.719711 0.033988 0.547586
v 1.038151 0.096917 0.547586
v 1.022978 0.153544 0.547586
v 0.984800 0.191722 0.547586
v 0.928174 0.206895 0.547586
v 0.734884 0.153544 0.547586
v 0.719711 0.096917 0.547586
v 0.773062 0.191722 0.547586
v 0.829688 0.206895 0.547586
v 0.711054 0.025330 1.389511
v 1.046809 0.025330 1.389511
v 0.685724 0.101392 1.389511
v 0.704412 0.171137 1.389511
v 0.755469 0.222194 1.389511
v 0.825214 0.240882 1.389511
v 1.053451 0.171137 1.389511
v 1.072139 0.101392 1.389511
v 1.002394 0.222194 1.389511
v 0.932649 0.240882 1.389511
v 0.728500 0.042776 1.335776
v 1.029362 0.042776 1.335776
v 0.728500 0.095760 1.335776
v 0.742764 0.148994 1.335776
v 0.777611 0.183842 1.335776
v 0.830845 0.198106 1.335776
v 1.015098 0.148994 1.335776
v 1.029362 0.095760 1.335776
v 0.980251 0.183842 1.335776
v 0.927017 0.198106 1.335776
v 0.711054 0.025330 1.335776
v 1.046809 0.025330 1.335776
v 0.711054 0.098057 1.335776
v 0.727122 0.158025 1.335776
v 0.768580 0.199484 1.335776
v 0.828548 0.215552 1.335776
v 1.030740 0.158025 1.335776
v 1.046809 0.098057 1.335776
v 0.989282 0.199484 1.335776
v 0.929314 0.215552 1.335776
v 0.741441 0.055717 1.493580
v 1.016421 0.055717 1.493580
v 0.741441 0.094057 1.493580
v 0.754367 0.142296 1.493580
v 0.784310 0.172239 1.493580
v 0.832549 0.185165 1.493580
v 1.003496 0.142296 1.493580
v 1.016421 0.094057 1.493580
v 0.973552 0.172239 1.493580
v 0.925313 0.185165 1.493580
v 0.728500 0.042776 1.493580
v 1.029362 0.042776 1.493580
v 0.728500 0.095760 1.493580
v 0.742764 0.148994 1.493580
v 0.777611 0.183842 1.493580
v 0.830845 0.198106 1.493580
v 1.015098 0.148994 1.493580
v 1.029362 0.095760 1.493580
v 0.980251 0.183842 1.493580
v 0.927017 0.198106 1.493580
v 0.741441 0.055717 1.407483
v 1.016421 0.055717 1.407483
v 0.741441 0.094057 1.407483
v 0.754367 0.142296 1.407483
v 0.784310 0.172239 1.407483
v 0.832549 0.185165 1.407483
v 1.003496 0.142296 1.407483
v 1.016421 0.094057 1.407483
v 0.973552 0.172239 1.407483
v 0.925313 0.185165 1.407483
v 0.058438 0.000000 -0.885137
v 0.058438 0.085245 -0.885137
v 0.000000 0.152733 -0.885137
v 0.055001 0.121233 -0.885137
v -0.469702 0.000000 1.278222
v -0.469702 0.000000 -0.022249
v -0.469702 0.000000 0.949090
v -0.685724 0.000000 1.278222
v -0.685724 0.000000 0.949090
v -1.072139 0.000000 1.278222
v -1.072139 0.000000 0.949090
v -0.685724 0.000000 1.389511
v -1.072139 0.000000 1.389511
v -0.685724 0.000000 0.511885
v -1.072139 0.000000 0.511885
v -0.469702 0.392580 1.278222
v -0.469702 0.392580 0.949090
v -0.469702 0.392580 -0.022249
v -0.469702 0.085058 1.278222
v -0.469702 0.085171 0.949090
v -0.685724 0.085171 1.278222
v -0.685724 0.085171 0.949090
v -0.469702 0.085245 -0.022249
v -0.685724 0.101392 1.278222
v -0.825214 0.240882 1.278222
v -0.704412 0.171137 1.278222
v -0.755469 0.222194 1.278222
v -0.825214 0.240882 0.949090
v -0.685724 0.101392 0.949090
v -0.755469 0.222194 0.949090
v -0.704412 0.171137 0.949090
v -0.932649 0.240882 1.278222
v -1.072139 0.101392 1.278222
v -1.002394 0.222194 1.278222
v -1.053451 0.171137 1.278222
v -1.072139 0.101392 0.949090
v -0.932649 0.240882 0.949090
v -1.053451 0.171137 0.949090
v -1.002394 0.222194 0.949090
v -0.828548 0.215552 1.389511
v -0.711054 0.098057 1.389511
v -0.768580 0.199484 1.389511
v -0.727122 0.158025 1.389511
v -1.046809 0.098057 1.389511
v -0.929314 0.215552 1.389511
v -1.030740 0.158025 1.389511
v -0.989282 0.199484 1.389511
v -0.928174 0.206895 0.511885
v -1.038151 0.096917 0.511885
v -0.984800 0.191722 0.511885
v -1.022978 0.153544 0.511885
v -0.719711 0.096917 0.511885
v -0.829688 0.206895 0.511885
v -0.734884 0.153544 0.511885
v -0.773062 0.191722 0.511885
v -1.038151 0.033988 0.511885
v -0.719711 0.033988 0.511885
v -1.072139 0.101392 0.511885
v -1.053451 0.171137 0.511885
v -1.002394 0.222194 0.511885
v -0.932649 0.240882 0.511885
v -0.704412 0.171137 0.511885
v -0.685724 0.101392 0.511885
v -0.755469 0.222194 0.511885
v -0.825214 0.240882 0.511885
v -1.038151 0.033988 0.547586
v -0.719711 0.033988 0.547586
v -1.038151 0.096917 0.547586
v -1.022978 0.153544 0.547586
v -0.984800 0.191722 0.547586
v -0.928174 0.206895 0.547586
v -0.734884 0.153544 0.547586
v -0.719711 0.096917 0.547586
v -0.773062 0.191722 0.547586
v -0.829688 0.206895 0.547586
v -0.711054 0.025330 1.389511
v -1.046809 0.025330 1.389511
v -0.685724 0.101392 1.389511
v -0.704412 0.171137 1.389511
v -0.755469 0.222194 1.389511
v -0.825214 0.240882 1.389511
v -1.053451 0.171137 1.389511
v -1.072139 0.101392 1.389511
v -1.002394 0.222194 1.389511
v -0.932649 0.240882 1.389511
v -0.728500 0.042776 1.335776
v -1.029362 0.042776 1.335776
v -0.728500 0.095760 1.335776
v -0.742764 0.148994 1.335776
v -0.777611 0.183842 1.335776
v -0.830845 0.198106 1.335776
v -1.015098 0.148994 1.335776
v -1.029362 0.095760 1.335776
v -0.980251 0.183842 1.335776
v -0.927017 0.198106 1.335776
v -0.711054 0.025330 1.335776
v -1.046809 0.025330 1.335776
v -0.711054 0.098057 1.335776
v -0.727122 0.158025 1.335776
v -0.768580 0.199484 1.335776
v -0.828548 0.215552 1.335776
v -1.030740 0.158025 1.335776
v -1.046809 0.098057 1.335776
v -0.989282 0.199484 1.335776
v -0.929314 0.215552 1.335776
v -0.741441 0.055717 1.493580
v -1.016421 0.055717 1.493580
v -0.741441 0.094057 1.493580
v -0.754367 0.142296 1.493580
v -0.784310 0.172239 1.493580
v -0.832549 0.185165 1.493580
v -1.003496 0.142296 1.493580
v -1.016421 0.094057 1.493580
v -0.973552 0.172239 1.493580
v -0.925313 0.185165 1.493580
v -0.728500 0.042776 1.493580
v -1.029362 0.042776 1.493580
v -0.728500 0.095760 1.493580
v -0.742764 0.148994 1.493580
v -0.777611 0.183842 1.493580
v -0.830845 0.198106 1.493580
v -1.015098 0.148994 1.493580
v -1.029362 0.095760 1.493580
v -0.980251 0.183842 1.493580
v -0.927017 0.198106 1.493580
v -0.741441 0.055717 1.407483
v -1.016421 0.055717 1.407483
v -0.741441 0.094057 1.407483
v -0.754367 0.142296 1.407483
v -0.784310 0.172239 1.407483
v -0.832549 0.185165 1.407483
v -1.003496 0.142296 1.407483
v -1.016421 0.094057 1.407483
v -0.973552 0.172239 1.407483
v -0.925313 0.185165 1.407483
v -0.058438 0.000000 -0.885137
v -0.058438 0.085245 -0.885137
v -0.055001 0.121233 -0.885137
v 0.000000 -0.392580 0.949721
v 0.000000 -0.392580 1.294120
v 0.469702 -0.392580 1.278222
v 0.469702 -0.392580 0.949090
v 0.469702 -0.392580 -0.022249
v 0.000000 -0.392580 -0.420465
v 0.469702 -0.085058 1.278222
v 0.469702 -0.085171 0.949090
v 0.685724 -0.085171 1.278222
v 0.685724 -0.085171 0.949090
v 0.000000 -0.084945 1.294120
v 0.469702 -0.085245 -0.022249
v 0.000000 -0.085245 -0.885137
v 0.685724 -0.101392 1.278222
v 0.825214 -0.240882 1.278222
v 0.704412 -0.171137 1.278222
v 0.755469 -0.222194 1.278222
v 0.825214 -0.240882 0.949090
v 0.685724 -0.101392 0.949090
v 0.755469 -0.222194 0.949090
v 0.704412 -0.171137 0.949090
v 0.932649 -0.240882 1.278222
v 1.072139 -0.101392 1.278222
v 1.002394 -0.222194 1.278222
v 1.053451 -0.171137 1.278222
v 1.072139 -0.101392 0.949090
v 0.932649 -0.240882 0.949090
v 1.053451 -0.171137 0.949090
v 1.002394 -0.222194 0.949090
v 0.828548 -0.215552 1.389511
v 0.711054 -0.098057 1.389511
v 0.768580 -0.199484 1.389511
v 0.727122 -0.158025 1.389511
v 1.046809 -0.098057 1.389511
v 0.929314 -0.215552 1.389511
v 1.030740 -0.158025 1.389511
v 0.989282 -0.199484 1.389511
v 0.928174 -0.206895 0.511885
v 1.038151 -0.096917 0.511885
v 0.984800 -0.191722 0.511885
v 1.022978 -0.153544 0.511885
v 0.719711 -0.096917 0.511885
v 0.829688 -0.206895 0.511885
v 0.734884 -0.153544 0.511885
v 0.773062 -0.191722 0.511885
v 1.038151 -0.033988 0.511885
v 0.719711 -0.033988 0.511885
v 1.072139 -0.101392 0.511885
v 1.053451 -0.171137 0.511885
v 1.002394 -0.222194 0.511885
v 0.932649 -0.240882 0.511885
v 0.704412 -0.171137 0.511885
v 0.685724 -0.101392 0.511885
v 0.755469 -0.222194 0.511885
v 0.825214 -0.240882 0.511885
v 1.038151 -0.033988 0.547586
v 0.719711 -0.033988 0.547586
v 1.038151 -0.096917 0.547586
v 1.022978 -0.153544 0.547586
v 0.984800 -0.191722 0.547586
v 0.928174 -0.206895 0.547586
v 0.734884 -0.153544 0.547586
v 0.719711 -0.096917 0.547586
v 0.773062 -0.191722 0.547586
v 0.829688 -0.206895 0.547586
v 0.711054 -0.025330 1.389511
v 1.046809 -0.025330 1.389511
v 0.685724 -0.101392 1.389511
v 0.704412 -0.171137 1.389511
v 0.755469 -0.222194 1.389511
v 0.825214 -0.240882 1.389511
v 1.053451 -0.171137 1.389511
v 1.072139 -0.101392 1.389511
v 1.002394 -0.222194 1.389511
v 0.932649 -0.240882 1.389511
v 0.728500 -0.042776 1.335776
v 1.029362 -0.042776 1.335776
v 0.728500 -0.095760 1.335776
v 0.742764 -0.148994 1.335776
v 0.777611 -0.183842 1.335776
v 0.830845 -0.198106 1.335776
v 1.015098 -0.148994 1.335776
v 1.029362 -0.095760 1.335776
v 0.980251 -0.183842 1.335776
v 0.927017 -0.198106 1.335776
v 0.711054 -0.025330 1.335776
v 1.046809 -0.025330 1.335776
v 0.711054 -0.098057 1.335776
v 0.727122 -0.158025 1.335776
v 0.768580 -0.199484 1.335776
v 0.828548 -0.215552 1.335776
v 1.030740 -0.158025 1.335776
v 1.046809 -0.098057 1.335776
v 0.989282 -0.199484 1.335776
v 0.929314 -0.215552 1.335776
v 0.741441 -0.055717 1.493580
v 1.016421 -0.055717 1.493580
v 0.741441 -0.094057 1.493580
v 0.754367 -0.142296 1.493580
v 0.784310 -0.172239 1.493580
v 0.832549 -0.185165 1.493580
v 1.003496 -0.142296 1.493580
v 1.016421 -0.094057 1.493580
v 0.973552 -0.172239 1.493580
v 0.925313 -0.185165 1.493580
v 0.728500 -0.042776 1.493580
v 1.029362 -0.042776 1.493580
v 0.728500 -0.095760 1.493580
v 0.742764 -0.148994 1.493580
v 0.777611 -0.183842 1.493580
v 0.830845 -0.198106 1.493580
v 1.015098 -0.148994 1.493580
v 1.029362 -0.095760 1.493580
v 0.980251 -0.183842 1.493580
v 0.927017 -0.198106 1.493580
v 0.741441 -0.055717 1.407483
v 1.016421 -0.055717 1.407483
v 0.741441 -0.094057 1.407483
v 0.754367 -0.142296 1.407483
v 0.784310 -0.172239 1.407483
v 0.832549 -0.185165 1.407483
v 1.003496 -0.142296 1.407483
v 1.016421 -0.094057 1.407483
v 0.973552 -0.172239 1.407483
v 0.925313 -0.185165 1.407483
v 0.058438 -0.085245 -0.885137
v 0.000000 -0.152733 -0.885137
v 0.055001 -0.121233 -0.885137
v -0.469702 -0.392580 1.278222
v -0.469702 -0.392580 0.949090
v -0.469702 -0.392580 -0.022249
v -0.469702 -0.085058 1.278222
v -0.469702 -0.085171 0.949090
v -0.685724 -0.085171 1.278222
v -0.685724 -0.085171 0.949090
v -0.469702 -0.085245 -0.022249
v -0.685724 -0.101392 1.278222
v -0.825214 -0.240882 1.278222
v -0.704412 -0.171137 1.278222
v -0.755469 -0.222194 1.278222
v -0.825214 -0.240882 0.949090
v -0.685724 -0.101392 0.949090
v -0.755469 -0.222194 0.949090
v -0.704412 -0.171137 0.949090
v -0.932649 -0.240882 1.278222
v -1.072139 -0.101392 1.278222
v -1.002394 -0.222194 1.278222
v -1.053451 -0.171137 1.278222
v -1.072139 -0.101392 0.949090
v -0.932649 -0.240882 0.949090
v -1.053451 -0.171137 0.949090
v -1.002394 -0.222194 0.949090
v -0.828548 -0.215552 1.389511
v -0.711054 -0.098057 1.389511
v -0.768580 -0.199484 1.389511
v -0.727122 -0.158025 1.389511
v -1.046809 -0.098057 1.389511
v -0.929314 -0.215552 1.389511
v -1.030740 -0.158025 1.389511
v -0.989282 -0.199484 1.389511
v -0.928174 -0.206895 0.511885
v -1.038151 -0.096917 0.511885
v -0.984800 -0.191722 0.511885
v -1.022978 -0.153544 0.511885
v -0.719711 -0.096917 0.511885
v -0.829688 -0.206895 0.511885
v -0.734884 -0.153544 0.511885
v -0.773062 -0.191722 0.511885
v -1.038151 -0.033988 0.511885
v -0.719711 -0.033988 0.511885
v -1.072139 -0.101392 0.511885
v -1.053451 -0.171137 0.511885
v -1.002394 -0.222194 0.511885
v -0.932649 -0.240882 0.511885
v -0.704412 -0.171137 0.511885
v -0.685724 -0.101392 0.511885
v -0.755469 -0.222194 0.511885
v -0.825214 -0.240882 0.511885
v -1.038151 -0.033988 0.547586
v -0.719711 -0.033988 0.547586
v -1.038151 -0.096917 0.547586
v -1.022978 -0.153544 0.547586
v -0.984800 -0.191722 0.547586
v -0.928174 -0.206895 0.547586
v -0.734884 -0.153544 0.547586
v -0.719711 -0.096917 0.547586
v -0.773062 -0.191722 0.547586
v -0.829688 -0.206895 0.547586
v -0.711054 -0.025330 1.389511
v -1.046809 -0.025330 1.389511
v -0.685724 -0.101392 1.389511
v -0.704412 -0.171137 1.389511
v -0.755469 -0.222194 1.389511
v -0.825214 -0.240882 1.389511
v -1.053451 -0.171137 1.389511
v -1.072139 -0.101392 1.389511
v -1.002394 -0.222194 1.389511
v -0.932649 -0.240882 1.389511
v -0.728500 -0.042776 1.335776
v -1.029362 -0.042776 1.335776
v -0.728500 -0.095760 1.335776
v -0.742764 -0.148994 1.335776
v -0.777611 -0.183842 1.335776
v -0.830845 -0.198106 1.335776
v -1.015098 -0.148994 1.335776
v -1.029362 -0.095760 1.335776
v -0.980251 -0.183842 1.335776
v -0.927017 -0.198106 1.335776
v -0.711054 -0.025330 1.335776
v -1.046809 -0.025330 1.335776
v -0.711054 -0.098057 1.335776
v -0.727122 -0.158025 1.335776
v -0.768580 -0.199484 1.335776
v -0.828548 -0.215552 1.335776
v -1.030740 -0.158025 1.335776
v -1.046809 -0.098057 1.335776
v -0.989282 -0.199484 1.335776
v -0.929314 -0.215552 1.335776
v -0.741441 -0.055717 1.493580
v -1.016421 -0.055717 1.493580
v -0.741441 -0.094057 1.493580
v -0.754367 -0.142296 1.493580
v -0.784310 -0.172239 1.493580
v -0.832549 -0.185165 1.493580
v -1.003496 -0.142296 1.493580
v -1.016421 -0.094057 1.493580
v -0.973552 -0.172239 1.493580
v -0.925313 -0.185165 1.493580
v -0.728500 -0.042776 1.493580
v -1.029362 -0.042776 1.493580
v -0.728500 -0.095760 1.493580
v -0.742764 -0.148994 1.493580
v -0.777611 -0.183842 1.493580
v -0.830845 -0.198106 1.493580
v -1.015098 -0.148994 1.493580
v -1.029362 -0.095760 1.493580
v -0.980251 -0.183842 1.493580
v -0.927017 -0.198106 1.493580
v -0.741441 -0.055717 1.407483
v -1.016421 -0.055717 1.407483
v -0.741441 -0.094057 1.407483
v -0.754367 -0.142296 1.407483
v -0.784310 -0.172239 1.407483
v -0.832549 -0.185165 1.407483
v -1.003496 -0.142296 1.407483
v -1.016421 -0.094057 1.407483
v -0.973552 -0.172239 1.407483
v -0.925313 -0.185165 1.407483
v -0.058438 -0.085245 -0.885137
v -0.055001 -0.121233 -0.885137
vn -0.0000 1.0000 -0.0000
vn 0.0338 -0.0000 0.9994
vn 1.0000 -0.0000 -0.0000
vn 0.3778 0.8183 -0.4331
vn -0.0003 1.0000 0.0002
vn -0.0000 -0.0000 -1.0000
vn -0.2588 0.9659 -0.0000
vn -0.7071 0.7071 -0.0000
vn -0.9659 0.2588 -0.0000
vn 0.9659 0.2588 -0.0000
vn 0.7071 0.7071 -0.0000
vn 0.2588 0.9659 -0.0000
vn -1.0000 -0.0000 -0.0000
vn -0.0000 -0.0000 1.0000
vn -0.0000 -1.0000 -0.0000
vn 0.9659 -0.2588 -0.0000
vn -0.9659 -0.2588 -0.0000
vn 0.7071 -0.7071 -0.0000
vn -0.7071 -0.7071 -0.0000
vn 0.2588 -0.9659 -0.0000
vn -0.2588 -0.9659 -0.0000
vn 0.9027 -0.0000 -0.4302
vn 0.9014 0.0090 -0.4328
vn -0.0338 -0.0000 0.9994
vn -0.3778 0.8183 -0.4331
vn 0.0003 1.0000 0.0002
vn -0.9027 -0.0000 -0.4302
vn -0.9014 0.0090 -0.4328
vn 0.3778 -0.8183 -0.4331
vn -0.0003 -1.0000 0.0002
vn 0.9014 -0.0090 -0.4328
vn -0.3778 -0.8183 -0.4331
vn 0.0003 -1.0000 0.0002
vn -0.9014 -0.0090 -0.4328
vt 0.000000 0.150123
vt 1.000000 0.253086
vt 1.000000 1.000000
vt 0.000000 1.000000
vt 0.000000 0.000000
vt 1.000000 0.000000
vt 1.000000 0.253086
vt 0.117098 1.000000
vt 0.124416 1.000000
vt 0.124416 1.000000
vt 1.000000 0.253086
vt 1.000000 0.253086
vt 1.000000 0.253086
vt 1.000000 0.000000
vt 1.000000 0.000000
vt 1.000000 0.000000
vt 1.000000 0.000000
vt 1.000000 0.000000
s 0
f 14/1/1 17/2/1 18/3/1 19/4/1
f 15/5/1 16/6/1 17/2/1 14/1/1
f 24/5/2 20/6/2 16/6/2 15/5/2
f 21/7/3 25/3/3 18/3/3 17/2/3
f 141/4/4 19/4/4 18/3/4 142/8/4
f 21/2/5 20/6/5 22/6/5 23/2/5
f 17/2/3 16/6/3 20/6/3 21/2/3
f 1/5/2 2/6/2 20/6/2 24/5/2
f 139/9/6 3/4/6 26/4/6 140/10/6
f 5/2/3 4/3/3 25/3/3 21/7/3
f 28/6/7 31/7/7 33/2/7 30/6/7
f 30/6/8 33/2/8 34/7/8 29/6/8
f 29/6/9 34/7/9 32/2/9 27/6/9
f 36/6/10 39/7/10 41/7/10 38/6/10
f 38/6/11 41/7/11 42/2/11 37/6/11
f 37/6/12 42/2/12 40/7/12 35/6/12
f 27/6/9 81/6/9 82/6/9 29/6/9
f 29/6/8 82/6/8 83/6/8 30/6/8
f 30/6/7 83/6/7 84/6/7 28/6/7
f 86/6/10 36/6/10 38/6/10 85/6/10
f 85/6/11 38/6/11 37/6/11 87/6/11
f 87/6/12 37/6/12 35/6/12 88/6/12
f 39/7/10 61/7/10 62/7/10 41/7/10
f 41/7/11 62/7/11 63/2/11 42/2/11
f 42/2/12 63/2/12 64/7/12 40/7/12
f 66/7/9 32/2/9 34/7/9 65/7/9
f 65/7/8 34/7/8 33/2/8 67/2/8
f 67/2/7 33/2/7 31/7/7 68/7/7
f 31/7/1 28/6/1 35/6/1 40/7/1
f 35/6/1 28/6/1 84/6/1 88/6/1
f 6/6/13 10/6/13 81/6/13 27/6/13
f 2/6/14 6/6/14 27/6/14 22/6/14 20/6/14
f 27/6/13 32/2/13 23/2/13 22/6/13
f 31/7/1 40/7/1 64/7/1 68/7/1
f 12/2/13 7/2/13 32/2/13 66/7/13
f 7/2/6 5/2/6 21/2/6 23/7/6 32/2/6
f 8/6/3 9/2/3 39/7/3 36/6/3
f 11/6/3 8/6/3 36/6/3 86/6/3
f 9/2/3 13/2/3 61/7/3 39/7/3
f 48/6/15 43/6/15 104/6/15 108/6/15
f 55/2/16 57/11/16 75/11/16 76/2/16
f 60/12/6 59/7/6 13/2/6 12/2/6
f 52/7/6 54/7/6 62/7/6 61/7/6
f 54/7/6 53/13/6 63/2/6 62/7/6
f 53/13/6 51/2/6 64/7/6 63/2/6
f 57/11/6 55/2/6 66/7/6 65/7/6
f 58/11/6 57/11/6 65/7/6 67/2/6
f 56/11/6 58/11/6 67/2/6 68/7/6
f 51/2/6 56/11/6 68/7/6 64/7/6
f 55/2/6 60/12/6 12/2/6 66/7/6
f 59/7/6 52/7/6 61/7/6 13/2/6
f 69/7/6 70/12/6 76/2/6 75/11/6 77/11/6 78/11/6 74/2/6 73/13/6 72/7/6 71/7/6
f 54/7/17 52/7/17 71/7/17 72/7/17
f 60/12/3 55/2/3 76/2/3 70/12/3
f 57/11/18 58/11/18 77/11/18 75/11/18
f 53/13/19 54/7/19 72/7/19 73/13/19
f 52/7/13 59/7/13 69/7/13 71/7/13
f 58/11/20 56/11/20 78/11/20 77/11/20
f 59/7/1 60/12/1 70/12/1 69/7/1
f 51/2/21 53/13/21 73/13/21 74/2/21
f 56/11/15 51/2/15 74/2/15 78/11/15
f 80/14/14 79/15/14 10/6/14 11/6/14
f 44/6/14 46/6/14 82/6/14 81/6/14
f 46/6/14 45/6/14 83/6/14 82/6/14
f 45/6/14 43/6/14 84/6/14 83/6/14
f 49/6/14 47/6/14 86/6/14 85/6/14
f 50/6/14 49/6/14 85/6/14 87/6/14
f 48/6/14 50/6/14 87/6/14 88/6/14
f 43/6/14 48/6/14 88/6/14 84/6/14
f 79/15/14 44/6/14 81/6/14 10/6/14
f 47/6/14 80/14/14 11/6/14 86/6/14
f 93/16/8 92/6/8 122/6/8 123/16/8
f 79/15/1 80/14/1 100/14/1 99/15/1
f 47/6/17 49/6/17 105/6/17 106/6/17
f 46/6/16 44/6/16 101/6/16 102/6/16
f 44/6/3 79/15/3 99/15/3 101/6/3
f 49/6/19 50/6/19 107/6/19 105/6/19
f 45/6/18 46/6/18 102/6/18 103/6/18
f 80/14/13 47/6/13 106/6/13 100/14/13
f 50/6/21 48/6/21 108/6/21 107/6/21
f 43/6/20 45/6/20 103/6/20 104/6/20
f 90/14/14 89/14/14 99/15/14 100/14/14
f 91/17/14 92/6/14 102/6/14 101/6/14
f 92/6/14 93/16/14 103/6/14 102/6/14
f 93/16/14 94/6/14 104/6/14 103/6/14
f 95/6/14 96/6/14 106/6/14 105/6/14
f 97/6/14 95/6/14 105/6/14 107/6/14
f 98/6/14 97/6/14 107/6/14 108/6/14
f 94/6/14 98/6/14 108/6/14 104/6/14
f 89/14/14 91/17/14 101/6/14 99/15/14
f 96/6/14 90/14/14 100/14/14 106/6/14
f 117/6/21 118/15/21 138/15/21 137/6/21
f 90/14/3 96/6/3 126/6/3 120/14/3
f 97/6/12 98/6/12 128/6/12 127/6/12
f 94/6/7 93/16/7 123/16/7 124/6/7
f 89/14/15 90/14/15 120/14/15 119/14/15
f 98/6/1 94/6/1 124/6/1 128/6/1
f 96/6/10 95/6/10 125/6/10 126/6/10
f 92/6/9 91/17/9 121/17/9 122/6/9
f 91/17/13 89/14/13 119/14/13 121/17/13
f 95/6/11 97/6/11 127/6/11 125/6/11
f 110/14/14 109/18/14 119/14/14 120/14/14
f 111/6/14 112/6/14 122/6/14 121/17/14
f 112/6/14 113/17/14 123/16/14 122/6/14
f 113/17/14 114/6/14 124/6/14 123/16/14
f 115/15/14 116/15/14 126/6/14 125/6/14
f 117/6/14 115/15/14 125/6/14 127/6/14
f 118/15/14 117/6/14 127/6/14 128/6/14
f 114/6/14 118/15/14 128/6/14 124/6/14
f 109/18/14 111/6/14 121/17/14 119/14/14
f 116/15/14 110/14/14 120/14/14 126/6/14
f 129/18/14 130/14/14 136/15/14 135/15/14 137/6/14 138/15/14 134/6/14 133/17/14 132/6/14 131/6/14
f 114/6/20 113/17/20 133/17/20 134/6/20
f 109/18/1 110/14/1 130/14/1 129/18/1
f 118/15/15 114/6/15 134/6/15 138/15/15
f 116/15/17 115/15/17 135/15/17 136/15/17
f 112/6/16 111/6/16 131/6/16 132/6/16
f 111/6/3 109/18/3 129/18/3 131/6/3
f 115/15/19 117/6/19 137/6/19 135/15/19
f 113/17/18 112/6/18 132/6/18 133/17/18
f 110/14/13 116/15/13 136/15/13 130/14/13
f 140/10/6 26/4/6 142/8/6
f 4/3/22 139/9/22 140/10/22 25/3/22
f 26/4/6 141/4/6 142/8/6
f 25/3/23 140/10/23 142/8/23 18/3/23
f 14/1/1 19/4/1 156/3/1 155/2/1
f 15/5/1 14/1/1 155/2/1 154/6/1
f 24/5/24 15/5/24 154/6/24 157/6/24
f 158/7/13 155/2/13 156/3/13 161/3/13
f 141/4/25 276/8/25 156/3/25 19/4/25
f 158/2/26 160/2/26 159/6/26 157/6/26
f 155/2/13 158/2/13 157/6/13 154/6/13
f 1/5/24 24/5/24 157/6/24 143/6/24
f 274/9/6 275/10/6 26/4/6 3/4/6
f 145/2/13 158/7/13 161/3/13 144/3/13
f 163/6/12 165/6/12 168/2/12 166/7/12
f 165/6/11 164/6/11 169/7/11 168/2/11
f 164/6/10 162/6/10 167/2/10 169/7/10
f 171/6/9 173/6/9 176/7/9 174/7/9
f 173/6/8 172/6/8 177/2/8 176/7/8
f 172/6/7 170/6/7 175/7/7 177/2/7
f 162/6/10 164/6/10 217/6/10 216/6/10
f 164/6/11 165/6/11 218/6/11 217/6/11
f 165/6/12 163/6/12 219/6/12 218/6/12
f 221/6/9 220/6/9 173/6/9 171/6/9
f 220/6/8 222/6/8 172/6/8 173/6/8
f 222/6/7 223/6/7 170/6/7 172/6/7
f 174/7/9 176/7/9 197/7/9 196/7/9
f 176/7/8 177/2/8 198/2/8 197/7/8
f 177/2/7 175/7/7 199/7/7 198/2/7
f 201/7/10 200/7/10 169/7/10 167/2/10
f 200/7/11 202/2/11 168/2/11 169/7/11
f 202/2/12 203/7/12 166/7/12 168/2/12
f 166/7/1 175/7/1 170/6/1 163/6/1
f 170/6/1 223/6/1 219/6/1 163/6/1
f 146/6/3 162/6/3 216/6/3 150/6/3
f 143/6/14 157/6/14 159/6/14 162/6/14 146/6/14
f 162/6/3 159/6/3 160/2/3 167/2/3
f 166/7/1 203/7/1 199/7/1 175/7/1
f 152/2/3 201/7/3 167/2/3 147/2/3
f 147/2/6 167/2/6 160/7/6 158/2/6 145/2/6
f 148/6/13 171/6/13 174/7/13 149/2/13
f 151/6/13 221/6/13 171/6/13 148/6/13
f 149/2/13 174/7/13 196/7/13 153/2/13
f 183/6/15 243/6/15 239/6/15 178/6/15
f 190/2/17 211/2/17 210/11/17 192/11/17
f 195/12/6 152/2/6 153/2/6 194/7/6
f 187/7/6 196/7/6 197/7/6 189/7/6
f 189/7/6 197/7/6 198/2/6 188/13/6
f 188/13/6 198/2/6 199/7/6 186/2/6
f 192/11/6 200/7/6 201/7/6 190/2/6
f 193/11/6 202/2/6 200/7/6 192/11/6
f 191/11/6 203/7/6 202/2/6 193/11/6
f 186/2/6 199/7/6 203/7/6 191/11/6
f 190/2/6 201/7/6 152/2/6 195/12/6
f 194/7/6 153/2/6 196/7/6 187/7/6
f 204/7/6 206/7/6 207/7/6 208/13/6 209/2/6 213/11/6 212/11/6 210/11/6 211/2/6 205/12/6
f 189/7/16 207/7/16 206/7/16 187/7/16
f 195/12/13 205/12/13 211/2/13 190/2/13
f 192/11/19 210/11/19 212/11/19 193/11/19
f 188/13/18 208/13/18 207/7/18 189/7/18
f 187/7/3 206/7/3 204/7/3 194/7/3
f 193/11/21 212/11/21 213/11/21 191/11/21
f 194/7/1 204/7/1 205/12/1 195/12/1
f 186/2/20 209/2/20 208/13/20 188/13/20
f 191/11/15 213/11/15 209/2/15 186/2/15
f 215/14/14 151/6/14 150/6/14 214/15/14
f 179/6/14 216/6/14 217/6/14 181/6/14
f 181/6/14 217/6/14 218/6/14 180/6/14
f 180/6/14 218/6/14 219/6/14 178/6/14
f 184/6/14 220/6/14 221/6/14 182/6/14
f 185/6/14 222/6/14 220/6/14 184/6/14
f 183/6/14 223/6/14 222/6/14 185/6/14
f 178/6/14 219/6/14 223/6/14 183/6/14
f 214/15/14 150/6/14 216/6/14 179/6/14
f 182/6/14 221/6/14 151/6/14 215/14/14
f 228/16/11 258/16/11 257/6/11 227/6/11
f 214/15/1 234/15/1 235/14/1 215/14/1
f 182/6/16 241/6/16 240/6/16 184/6/16
f 181/6/17 237/6/17 236/6/17 179/6/17
f 179/6/13 236/6/13 234/15/13 214/15/13
f 184/6/18 240/6/18 242/6/18 185/6/18
f 180/6/19 238/6/19 237/6/19 181/6/19
f 215/14/3 235/14/3 241/6/3 182/6/3
f 185/6/20 242/6/20 243/6/20 183/6/20
f 178/6/21 239/6/21 238/6/21 180/6/21
f 225/14/14 235/14/14 234/15/14 224/14/14
f 226/17/14 236/6/14 237/6/14 227/6/14
f 227/6/14 237/6/14 238/6/14 228/16/14
f 228/16/14 238/6/14 239/6/14 229/6/14
f 230/6/14 240/6/14 241/6/14 231/6/14
f 232/6/14 242/6/14 240/6/14 230/6/14
f 233/6/14 243/6/14 242/6/14 232/6/14
f 229/6/14 239/6/14 243/6/14 233/6/14
f 224/14/14 234/15/14 236/6/14 226/17/14
f 231/6/14 241/6/14 235/14/14 225/14/14
f 252/6/20 272/6/20 273/15/20 253/15/20
f 225/14/13 255/14/13 261/6/13 231/6/13
f 232/6/7 262/6/7 263/6/7 233/6/7
f 229/6/12 259/6/12 258/16/12 228/16/12
f 224/14/15 254/14/15 255/14/15 225/14/15
f 233/6/1 263/6/1 259/6/1 229/6/1
f 231/6/9 261/6/9 260/6/9 230/6/9
f 227/6/10 257/6/10 256/17/10 226/17/10
f 226/17/3 256/17/3 254/14/3 224/14/3
f 230/6/8 260/6/8 262/6/8 232/6/8
f 245/14/14 255/14/14 254/14/14 244/18/14
f 246/6/14 256/17/14 257/6/14 247/6/14
f 247/6/14 257/6/14 258/16/14 248/17/14
f 248/17/14 258/16/14 259/6/14 249/6/14
f 250/15/14 260/6/14 261/6/14 251/15/14
f 252/6/14 262/6/14 260/6/14 250/15/14
f 253/15/14 263/6/14 262/6/14 252/6/14
f 249/6/14 259/6/14 263/6/14 253/15/14
f 244/18/14 254/14/14 256/17/14 246/6/14
f 251/15/14 261/6/14 255/14/14 245/14/14
f 264/18/14 266/6/14 267/6/14 268/17/14 269/6/14 273/15/14 272/6/14 270/15/14 271/15/14 265/14/14
f 249/6/21 269/6/21 268/17/21 248/17/21
f 244/18/1 264/18/1 265/14/1 245/14/1
f 253/15/15 273/15/15 269/6/15 249/6/15
f 251/15/16 271/15/16 270/15/16 250/15/16
f 247/6/17 267/6/17 266/6/17 246/6/17
f 246/6/13 266/6/13 264/18/13 244/18/13
f 250/15/18 270/15/18 272/6/18 252/6/18
f 248/17/19 268/17/19 267/6/19 247/6/19
f 245/14/3 265/14/3 271/15/3 251/15/3
f 275/10/6 276/8/6 26/4/6
f 144/3/27 161/3/27 275/10/27 274/9/27
f 26/4/6 276/8/6 141/4/6
f 161/3/28 156/3/28 276/8/28 275/10/28
f 277/1/15 282/4/15 281/3/15 280/2/15
f 278/5/15 277/1/15 280/2/15 279/6/15
f 287/5/2 278/5/2 279/6/2 283/6/2
f 284/7/3 280/2/3 281/3/3 288/3/3
f 403/4/29 404/8/29 281/3/29 282/4/29
f 284/2/30 286/2/30 285/6/30 283/6/30
f 280/2/3 284/2/3 283/6/3 279/6/3
f 1/5/2 287/5/2 283/6/2 2/6/2
f 139/9/6 402/10/6 289/4/6 3/4/6
f 5/2/3 284/7/3 288/3/3 4/3/3
f 291/6/21 293/6/21 296/2/21 294/7/21
f 293/6/19 292/6/19 297/7/19 296/2/19
f 292/6/17 290/6/17 295/2/17 297/7/17
f 299/6/16 301/6/16 304/7/16 302/7/16
f 301/6/18 300/6/18 305/2/18 304/7/18
f 300/6/20 298/6/20 303/7/20 305/2/20
f 290/6/17 292/6/17 345/6/17 344/6/17
f 292/6/19 293/6/19 346/6/19 345/6/19
f 293/6/21 291/6/21 347/6/21 346/6/21
f 349/6/16 348/6/16 301/6/16 299/6/16
f 348/6/18 350/6/18 300/6/18 301/6/18
f 350/6/20 351/6/20 298/6/20 300/6/20
f 302/7/16 304/7/16 325/7/16 324/7/16
f 304/7/18 305/2/18 326/2/18 325/7/18
f 305/2/20 303/7/20 327/7/20 326/2/20
f 329/7/17 328/7/17 297/7/17 295/2/17
f 328/7/19 330/2/19 296/2/19 297/7/19
f 330/2/21 331/7/21 294/7/21 296/2/21
f 294/7/15 303/7/15 298/6/15 291/6/15
f 298/6/15 351/6/15 347/6/15 291/6/15
f 6/6/13 290/6/13 344/6/13 10/6/13
f 2/6/14 283/6/14 285/6/14 290/6/14 6/6/14
f 290/6/13 285/6/13 286/2/13 295/2/13
f 294/7/15 331/7/15 327/7/15 303/7/15
f 12/2/13 329/7/13 295/2/13 7/2/13
f 7/2/6 295/2/6 286/7/6 284/2/6 5/2/6
f 8/6/3 299/6/3 302/7/3 9/2/3
f 11/6/3 349/6/3 299/6/3 8/6/3
f 9/2/3 302/7/3 324/7/3 13/2/3
f 311/6/1 371/6/1 367/6/1 306/6/1
f 318/2/10 339/2/10 338/11/10 320/11/10
f 323/12/6 12/2/6 13/2/6 322/7/6
f 315/7/6 324/7/6 325/7/6 317/7/6
f 317/7/6 325/7/6 326/2/6 316/13/6
f 316/13/6 326/2/6 327/7/6 314/2/6
f 320/11/6 328/7/6 329/7/6 318/2/6
f 321/11/6 330/2/6 328/7/6 320/11/6
f 319/11/6 331/7/6 330/2/6 321/11/6
f 314/2/6 327/7/6 331/7/6 319/11/6
f 318/2/6 329/7/6 12/2/6 323/12/6
f 322/7/6 13/2/6 324/7/6 315/7/6
f 332/7/6 334/7/6 335/7/6 336/13/6 337/2/6 341/11/6 340/11/6 338/11/6 339/2/6 333/12/6
f 317/7/9 335/7/9 334/7/9 315/7/9
f 323/12/3 333/12/3 339/2/3 318/2/3
f 320/11/11 338/11/11 340/11/11 321/11/11
f 316/13/8 336/13/8 335/7/8 317/7/8
f 315/7/13 334/7/13 332/7/13 322/7/13
f 321/11/12 340/11/12 341/11/12 319/11/12
f 322/7/15 332/7/15 333/12/15 323/12/15
f 314/2/7 337/2/7 336/13/7 316/13/7
f 319/11/1 341/11/1 337/2/1 314/2/1
f 343/14/14 11/6/14 10/6/14 342/15/14
f 307/6/14 344/6/14 345/6/14 309/6/14
f 309/6/14 345/6/14 346/6/14 308/6/14
f 308/6/14 346/6/14 347/6/14 306/6/14
f 312/6/14 348/6/14 349/6/14 310/6/14
f 313/6/14 350/6/14 348/6/14 312/6/14
f 311/6/14 351/6/14 350/6/14 313/6/14
f 306/6/14 347/6/14 351/6/14 311/6/14
f 342/15/14 10/6/14 344/6/14 307/6/14
f 310/6/14 349/6/14 11/6/14 343/14/14
f 356/16/19 386/16/19 385/6/19 355/6/19
f 342/15/15 362/15/15 363/14/15 343/14/15
f 310/6/9 369/6/9 368/6/9 312/6/9
f 309/6/10 365/6/10 364/6/10 307/6/10
f 307/6/3 364/6/3 362/15/3 342/15/3
f 312/6/8 368/6/8 370/6/8 313/6/8
f 308/6/11 366/6/11 365/6/11 309/6/11
f 343/14/13 363/14/13 369/6/13 310/6/13
f 313/6/7 370/6/7 371/6/7 311/6/7
f 306/6/12 367/6/12 366/6/12 308/6/12
f 353/14/14 363/14/14 362/15/14 352/14/14
f 354/17/14 364/6/14 365/6/14 355/6/14
f 355/6/14 365/6/14 366/6/14 356/16/14
f 356/16/14 366/6/14 367/6/14 357/6/14
f 358/6/14 368/6/14 369/6/14 359/6/14
f 360/6/14 370/6/14 368/6/14 358/6/14
f 361/6/14 371/6/14 370/6/14 360/6/14
f 357/6/14 367/6/14 371/6/14 361/6/14
f 352/14/14 362/15/14 364/6/14 354/17/14
f 359/6/14 369/6/14 363/14/14 353/14/14
f 380/6/7 400/6/7 401/15/7 381/15/7
f 353/14/3 383/14/3 389/6/3 359/6/3
f 360/6/20 390/6/20 391/6/20 361/6/20
f 357/6/21 387/6/21 386/16/21 356/16/21
f 352/14/1 382/14/1 383/14/1 353/14/1
f 361/6/15 391/6/15 387/6/15 357/6/15
f 359/6/16 389/6/16 388/6/16 358/6/16
f 355/6/17 385/6/17 384/17/17 354/17/17
f 354/17/13 384/17/13 382/14/13 352/14/13
f 358/6/18 388/6/18 390/6/18 360/6/18
f 373/14/14 383/14/14 382/14/14 372/18/14
f 374/6/14 384/17/14 385/6/14 375/6/14
f 375/6/14 385/6/14 386/16/14 376/17/14
f 376/17/14 386/16/14 387/6/14 377/6/14
f 378/15/14 388/6/14 389/6/14 379/15/14
f 380/6/14 390/6/14 388/6/14 378/15/14
f 381/15/14 391/6/14 390/6/14 380/6/14
f 377/6/14 387/6/14 391/6/14 381/15/14
f 372/18/14 382/14/14 384/17/14 374/6/14
f 379/15/14 389/6/14 383/14/14 373/14/14
f 392/18/14 394/6/14 395/6/14 396/17/14 397/6/14 401/15/14 400/6/14 398/15/14 399/15/14 393/14/14
f 377/6/12 397/6/12 396/17/12 376/17/12
f 372/18/15 392/18/15 393/14/15 373/14/15
f 381/15/1 401/15/1 397/6/1 377/6/1
f 379/15/9 399/15/9 398/15/9 378/15/9
f 375/6/10 395/6/10 394/6/10 374/6/10
f 374/6/3 394/6/3 392/18/3 372/18/3
f 378/15/8 398/15/8 400/6/8 380/6/8
f 376/17/11 396/17/11 395/6/11 375/6/11
f 373/14/13 393/14/13 399/15/13 379/15/13
f 402/10/6 404/8/6 289/4/6
f 4/3/22 288/3/22 402/10/22 139/9/22
f 289/4/6 404/8/6 403/4/6
f 288/3/31 281/3/31 404/8/31 402/10/31
f 277/1/15 406/2/15 407/3/15 282/4/15
f 278/5/15 405/6/15 406/2/15 277/1/15
f 287/5/24 408/6/24 405/6/24 278/5/24
f 409/7/13 412/3/13 407/3/13 406/2/13
f 403/4/32 282/4/32 407/3/32 526/8/32
f 409/2/33 408/6/33 410/6/33 411/2/33
f 406/2/13 405/6/13 408/6/13 409/2/13
f 1/5/24 143/6/24 408/6/24 287/5/24
f 274/9/6 3/4/6 289/4/6 525/10/6
f 145/2/13 144/3/13 412/3/13 409/7/13
f 414/6/20 417/7/20 419/2/20 416/6/20
f 416/6/18 419/2/18 420/7/18 415/6/18
f 415/6/16 420/7/16 418/2/16 413/6/16
f 422/6/17 425/7/17 427/7/17 424/6/17
f 424/6/19 427/7/19 428/2/19 423/6/19
f 423/6/21 428/2/21 426/7/21 421/6/21
f 413/6/16 467/6/16 468/6/16 415/6/16
f 415/6/18 468/6/18 469/6/18 416/6/18
f 416/6/20 469/6/20 470/6/20 414/6/20
f 472/6/17 422/6/17 424/6/17 471/6/17
f 471/6/19 424/6/19 423/6/19 473/6/19
f 473/6/21 423/6/21 421/6/21 474/6/21
f 425/7/17 447/7/17 448/7/17 427/7/17
f 427/7/19 448/7/19 449/2/19 428/2/19
f 428/2/21 449/2/21 450/7/21 426/7/21
f 452/7/16 418/2/16 420/7/16 451/7/16
f 451/7/18 420/7/18 419/2/18 453/2/18
f 453/2/20 419/2/20 417/7/20 454/7/20
f 417/7/15 414/6/15 421/6/15 426/7/15
f 421/6/15 414/6/15 470/6/15 474/6/15
f 146/6/3 150/6/3 467/6/3 413/6/3
f 143/6/14 146/6/14 413/6/14 410/6/14 408/6/14
f 413/6/3 418/2/3 411/2/3 410/6/3
f 417/7/15 426/7/15 450/7/15 454/7/15
f 152/2/3 147/2/3 418/2/3 452/7/3
f 147/2/6 145/2/6 409/2/6 411/7/6 418/2/6
f 148/6/13 149/2/13 425/7/13 422/6/13
f 151/6/13 148/6/13 422/6/13 472/6/13
f 149/2/13 153/2/13 447/7/13 425/7/13
f 434/6/1 429/6/1 490/6/1 494/6/1
f 441/2/9 443/11/9 461/11/9 462/2/9
f 446/12/6 445/7/6 153/2/6 152/2/6
f 438/7/6 440/7/6 448/7/6 447/7/6
f 440/7/6 439/13/6 449/2/6 448/7/6
f 439/13/6 437/2/6 450/7/6 449/2/6
f 443/11/6 441/2/6 452/7/6 451/7/6
f 444/11/6 443/11/6 451/7/6 453/2/6
f 442/11/6 444/11/6 453/2/6 454/7/6
f 437/2/6 442/11/6 454/7/6 450/7/6
f 441/2/6 446/12/6 152/2/6 452/7/6
f 445/7/6 438/7/6 447/7/6 153/2/6
f 455/7/6 456/12/6 462/2/6 461/11/6 463/11/6 464/11/6 460/2/6 459/13/6 458/7/6 457/7/6
f 440/7/10 438/7/10 457/7/10 458/7/10
f 446/12/13 441/2/13 462/2/13 456/12/13
f 443/11/8 444/11/8 463/11/8 461/11/8
f 439/13/11 440/7/11 458/7/11 459/13/11
f 438/7/3 445/7/3 455/7/3 457/7/3
f 444/11/7 442/11/7 464/11/7 463/11/7
f 445/7/15 446/12/15 456/12/15 455/7/15
f 437/2/12 439/13/12 459/13/12 460/2/12
f 442/11/1 437/2/1 460/2/1 464/11/1
f 466/14/14 465/15/14 150/6/14 151/6/14
f 430/6/14 432/6/14 468/6/14 467/6/14
f 432/6/14 431/6/14 469/6/14 468/6/14
f 431/6/14 429/6/14 470/6/14 469/6/14
f 435/6/14 433/6/14 472/6/14 471/6/14
f 436/6/14 435/6/14 471/6/14 473/6/14
f 434/6/14 436/6/14 473/6/14 474/6/14
f 429/6/14 434/6/14 474/6/14 470/6/14
f 465/15/14 430/6/14 467/6/14 150/6/14
f 433/6/14 466/14/14 151/6/14 472/6/14
f 479/16/18 478/6/18 508/6/18 509/16/18
f 465/15/15 466/14/15 486/14/15 485/15/15
f 433/6/10 435/6/10 491/6/10 492/6/10
f 432/6/9 430/6/9 487/6/9 488/6/9
f 430/6/13 465/15/13 485/15/13 487/6/13
f 435/6/11 436/6/11 493/6/11 491/6/11
f 431/6/8 432/6/8 488/6/8 489/6/8
f 466/14/3 433/6/3 492/6/3 486/14/3
f 436/6/12 434/6/12 494/6/12 493/6/12
f 429/6/7 431/6/7 489/6/7 490/6/7
f 476/14/14 475/14/14 485/15/14 486/14/14
f 477/17/14 478/6/14 488/6/14 487/6/14
f 478/6/14 479/16/14 489/6/14 488/6/14
f 479/16/14 480/6/14 490/6/14 489/6/14
f 481/6/14 482/6/14 492/6/14 491/6/14
f 483/6/14 481/6/14 491/6/14 493/6/14
f 484/6/14 483/6/14 493/6/14 494/6/14
f 480/6/14 484/6/14 494/6/14 490/6/14
f 475/14/14 477/17/14 487/6/14 485/15/14
f 482/6/14 476/14/14 486/14/14 492/6/14
f 503/6/12 504/15/12 524/15/12 523/6/12
f 476/14/13 482/6/13 512/6/13 506/14/13
f 483/6/21 484/6/21 514/6/21 513/6/21
f 480/6/20 479/16/20 509/16/20 510/6/20
f 475/14/1 476/14/1 506/14/1 505/14/1
f 484/6/15 480/6/15 510/6/15 514/6/15
f 482/6/17 481/6/17 511/6/17 512/6/17
f 478/6/16 477/17/16 507/17/16 508/6/16
f 477/17/3 475/14/3 505/14/3 507/17/3
f 481/6/19 483/6/19 513/6/19 511/6/19
f 496/14/14 495/18/14 505/14/14 506/14/14
f 497/6/14 498/6/14 508/6/14 507/17/14
f 498/6/14 499/17/14 509/16/14 508/6/14
f 499/17/14 500/6/14 510/6/14 509/16/14
f 501/15/14 502/15/14 512/6/14 511/6/14
f 503/6/14 501/15/14 511/6/14 513/6/14
f 504/15/14 503/6/14 513/6/14 514/6/14
f 500/6/14 504/15/14 514/6/14 510/6/14
f 495/18/14 497/6/14 507/17/14 505/14/14
f 502/15/14 496/14/14 506/14/14 512/6/14
f 515/18/14 516/14/14 522/15/14 521/15/14 523/6/14 524/15/14 520/6/14 519/17/14 518/6/14 517/6/14
f 500/6/7 499/17/7 519/17/7 520/6/7
f 495/18/15 496/14/15 516/14/15 515/18/15
f 504/15/1 500/6/1 520/6/1 524/15/1
f 502/15/10 501/15/10 521/15/10 522/15/10
f 498/6/9 497/6/9 517/6/9 518/6/9
f 497/6/13 495/18/13 515/18/13 517/6/13
f 501/15/11 503/6/11 523/6/11 521/15/11
f 499/17/8 498/6/8 518/6/8 519/17/8
f 496/14/3 502/15/3 522/15/3 516/14/3
f 525/10/6 289/4/6 526/8/6
f 144/3/27 274/9/27 525/10/27 412/3/27
f 289/4/6 403/4/6 526/8/6
f 412/3/34 525/10/34 526/8/34 407/3/34
